<svg width="16" height="21" viewBox="0 0 16 21" fill="none" xmlns="http://www.w3.org/2000/svg">
<g id="Group">
<path id="Vector" d="M11.7143 2.42859H13.8571C14.236 2.42859 14.5994 2.5791 14.8673 2.84701C15.1352 3.11492 15.2857 3.47828 15.2857 3.85716V18.1429C15.2857 18.5218 15.1352 18.8851 14.8673 19.153C14.5994 19.4209 14.236 19.5714 13.8571 19.5714H2.42857C2.04969 19.5714 1.68633 19.4209 1.41842 19.153C1.15051 18.8851 1 18.5218 1 18.1429V3.85716C1 3.47828 1.15051 3.11492 1.41842 2.84701C1.68633 2.5791 2.04969 2.42859 2.42857 2.42859H4.57143" stroke="white" stroke-width="1.42857" stroke-linecap="round" stroke-linejoin="round"/>
<path id="Vector_2" d="M10.2857 1H6.00001C5.21103 1 4.57144 1.63959 4.57144 2.42857V3.14286C4.57144 3.93184 5.21103 4.57143 6.00001 4.57143H10.2857C11.0747 4.57143 11.7143 3.93184 11.7143 3.14286V2.42857C11.7143 1.63959 11.0747 1 10.2857 1Z" stroke="white" stroke-width="1.42857" stroke-linecap="round" stroke-linejoin="round"/>
<path id="Vector_3" d="M4.57144 12.4285L7.42858 14.5714L11 8.85712" stroke="white" stroke-width="1.42857" stroke-linecap="round" stroke-linejoin="round"/>
</g>
</svg>
