<svg width="21" height="23" viewBox="0 0 21 23" fill="none" xmlns="http://www.w3.org/2000/svg">
<path d="M10.2857 3C11.9111 3 13.4699 3.64569 14.6193 4.79502C15.7686 5.94435 16.4143 7.50317 16.4143 9.12857C16.4143 15.9429 18.9 17.2857 19.5714 17.2857H1C1.68571 17.2857 4.15714 15.9286 4.15714 9.12857C4.15714 7.50317 4.80283 5.94435 5.95216 4.79502C7.10149 3.64569 8.66032 3 10.2857 3Z" stroke="#747474" stroke-width="1.42857" stroke-linecap="round" stroke-linejoin="round"/>
<path d="M8 20C8.12349 20.4743 8.40086 20.8943 8.78865 21.194C9.17644 21.4938 9.65272 21.6564 10.1429 21.6564C10.633 21.6564 11.1093 21.4938 11.4971 21.194C11.8849 20.8943 12.1622 20.4743 12.2857 20" stroke="#747474" stroke-width="1.42857" stroke-linecap="round" stroke-linejoin="round"/>
<circle cx="16.5" cy="3.5" r="3.5" fill="#C80C0F"/>
</svg>
