<svg width="53" height="53" viewBox="0 0 53 53" fill="none" xmlns="http://www.w3.org/2000/svg">
<g clip-path="url(#clip0_45_284)">
<path d="M5.84324 26.3166C5.84324 31.8331 8.03466 37.1237 11.9354 41.0244C15.8362 44.9252 21.1267 47.1166 26.6432 47.1166C32.1597 47.1166 37.4503 44.9252 41.3511 41.0244C45.2518 37.1237 47.4432 31.8331 47.4432 26.3166C47.4432 20.8001 45.2518 15.5095 41.3511 11.6088C37.4503 7.70802 32.1597 5.5166 26.6432 5.5166C21.1267 5.5166 15.8362 7.70802 11.9354 11.6088C8.03466 15.5095 5.84324 20.8001 5.84324 26.3166Z" fill="#F5F5F5" stroke="#F5F5F5" stroke-width="0.2"/>
<path opacity="0.15" d="M20.6045 43.7184C20.6045 43.9404 21.2455 44.1534 22.3866 44.3104C23.5277 44.4674 25.0753 44.5556 26.689 44.5556C28.3027 44.5556 29.8503 44.4674 30.9914 44.3104C32.1325 44.1534 32.7735 43.9404 32.7735 43.7184C32.7735 43.4964 32.1325 43.2834 30.9914 43.1264C29.8503 42.9694 28.3027 42.8812 26.689 42.8812C25.0753 42.8812 23.5277 42.9694 22.3866 43.1264C21.2455 43.2834 20.6045 43.4964 20.6045 43.7184Z" fill="black"/>
<path d="M31.5874 25.7134C31.4142 24.1487 30.8043 22.9158 29.8594 22.4015C29.7606 22.4234 29.6592 22.4457 29.5552 22.4676C29.2998 22.52 29.0561 22.619 28.8366 22.7598C26.727 24.116 27.5496 28.9275 23.2575 28.1829C22.3656 28.0604 21.5253 27.6926 20.8302 27.1205C20.4285 27.5897 20.2235 28.1959 20.2582 28.8126C20.4194 29.7876 22.6798 30.2379 22.6798 30.6388C22.6792 30.8457 22.7081 31.0516 22.7656 31.2504H27.8918C27.8918 31.2504 28.9422 32.0418 28.9422 34.2367C28.9422 36.4316 27.8918 38.0379 27.8918 39.093C27.8918 39.4905 28.0497 39.8717 28.3307 40.1527C28.6118 40.4338 28.9929 40.5916 29.3904 40.5916C29.7879 40.5916 30.1691 40.4338 30.4501 40.1527C30.7311 39.8717 30.889 39.4905 30.889 39.093C30.889 38.0379 29.8386 36.4316 29.8386 34.2367C29.8386 32.0418 30.889 31.2504 30.889 31.2504H32.6778C32.9451 30.9055 33.1583 30.5221 33.3102 30.1131C33.7834 28.8126 31.8687 28.251 31.5874 25.7134Z" fill="#FFE500"/>
<path d="M34.1359 17.9368C33.959 17.6272 33.766 17.3271 33.5577 17.0377C32.0752 14.9827 29.9302 13.6837 27.5361 13.6837C25.078 13.6837 22.8826 15.0487 21.3866 17.2005C20.9088 16.8508 20.3343 16.6582 19.7423 16.6493C18.2286 16.6493 16.9603 17.9004 16.523 19.6133C15.8776 19.6553 15.2481 19.8322 14.6753 20.1326C14.1025 20.4331 13.5991 20.8503 13.1976 21.3574C13.478 21.7848 13.843 22.1502 14.27 22.4312C14.6971 22.7122 15.1771 22.9028 15.6806 22.9912C19.0133 23.6724 19.239 25.7696 20.8286 27.1205C21.5237 27.6926 22.3641 28.0604 23.256 28.1829C27.5496 28.927 26.727 24.116 28.8366 22.7577C29.0561 22.617 29.2998 22.5179 29.5552 22.4655C29.6592 22.4436 29.7606 22.4213 29.8594 22.3994C34.1406 21.4494 34.1406 20.4406 34.1406 18.2296C34.1406 18.1321 34.139 18.0346 34.1359 17.9368Z" fill="#6DD627"/>
<path d="M18.5734 31.2504H22.7656C22.7081 31.0516 22.6792 30.8457 22.6798 30.6388C22.6798 30.2379 20.4194 29.7876 20.2582 28.8126C20.2235 28.1959 20.4284 27.5897 20.8302 27.1205C19.2379 25.7685 19.0102 23.6724 15.6822 22.9912C15.1784 22.903 14.698 22.7125 14.2707 22.4315C13.8434 22.1505 13.4782 21.785 13.1976 21.3574C12.1503 22.6562 11.591 24.2807 11.6168 25.949C11.6165 26.7469 11.7375 27.5403 11.9756 28.302C12.2139 29.1341 12.7113 29.8686 13.3955 30.3988C14.0797 30.929 14.9151 31.2273 15.7804 31.2504H15.8106C15.8106 31.2504 16.7788 31.9784 16.7788 34.0038C16.7788 36.0292 15.8106 37.5086 15.8106 38.4815C15.8176 38.8433 15.9663 39.188 16.2247 39.4414C16.4831 39.6949 16.8306 39.8368 17.1925 39.8368C17.5544 39.8368 17.9019 39.6949 18.1603 39.4414C18.4187 39.188 18.5674 38.8433 18.5744 38.4815C18.5744 37.5086 17.6056 36.0276 17.6056 34.0038C17.6056 31.9799 18.5734 31.2504 18.5734 31.2504Z" fill="#FF6242"/>
<path d="M41.7596 27.6457C41.7596 25.6599 40.7628 23.9714 39.363 23.3069C39.1456 20.2805 37.1176 17.9186 34.6481 17.9186C34.4786 17.9184 34.3092 17.9273 34.1406 17.9451L34.1359 17.9368C34.139 18.0346 34.1406 18.1329 34.1406 18.2317C34.1406 20.4427 34.1406 21.4515 29.8594 22.4015C30.8043 22.9158 31.4142 24.1487 31.5874 25.7134C31.8687 28.251 33.7834 28.8126 33.3117 30.1131C33.1597 30.522 32.9465 30.9055 32.6794 31.2504H34.6694C35.3361 31.7886 36.9689 32.1931 36.9689 34.3366C36.9689 36.48 35.5737 39.0915 35.5737 40.8839C35.5737 42.8703 36.8623 43.4777 37.7374 43.4777C38.6126 43.4777 39.9012 42.8703 39.9012 40.8839C39.9012 39.0915 38.506 36.4805 38.506 34.3366C38.506 32.1926 41.7596 31.6523 41.7596 27.6457Z" fill="#4ACFFF"/>
<path d="M34.1359 17.9457C34.139 18.0403 34.1406 18.136 34.1406 18.2317C34.1545 18.7122 34.1328 19.1931 34.0756 19.6705C34.5238 20.1107 34.9335 20.5884 35.3002 21.0984C35.5495 21.4445 35.7803 21.8034 35.9918 22.1738C36.192 22.1529 36.3932 22.1427 36.5945 22.1431C37.5797 22.1494 38.5386 22.4618 39.3385 23.037C39.0224 20.1411 37.0406 17.9186 34.6481 17.9186C34.477 17.9183 34.306 17.9273 34.1359 17.9457Z" fill="#80DDFF"/>
<path d="M15.0753 24.1576C15.1808 23.742 15.3322 23.3395 15.5267 22.9574C14.5702 22.7509 13.7335 22.1761 13.1976 21.3574C12.2018 22.5884 11.6468 24.1173 11.621 25.7004C12.5445 24.7802 13.7737 24.2312 15.0753 24.1576Z" fill="#FF866E"/>
<path d="M15.5267 22.9574C16.2401 21.5643 17.4777 20.6372 18.8973 20.6372C19.6003 20.6476 20.2826 20.8762 20.8499 21.2913C22.6257 18.7366 25.233 17.1162 28.1507 17.1162C30.3858 17.1503 32.5163 18.0688 34.0756 19.6705C34.1328 19.1931 34.1545 18.7122 34.1406 18.2316C34.1406 18.1328 34.139 18.0346 34.1359 17.9368C33.959 17.6272 33.766 17.3271 33.5577 17.0377C32.0752 14.9832 29.9302 13.6837 27.5361 13.6837C25.078 13.6837 22.8826 15.0487 21.3866 17.2005C20.9087 16.8507 20.3339 16.6581 19.7418 16.6493C18.2286 16.6493 16.9603 17.9004 16.523 19.6133C15.8776 19.6553 15.2481 19.8322 14.6753 20.1326C14.1025 20.4331 13.5991 20.8503 13.1976 21.3574C13.7335 22.1761 14.5702 22.7509 15.5267 22.9574Z" fill="#9CEB60"/>
<path d="M24.959 31.2498C25.8149 29.5037 26.0567 27.7627 28.887 26.7986" stroke="black" stroke-width="0.2" stroke-linecap="round" stroke-linejoin="round"/>
<path d="M19.4896 31.2499C19.9222 30.8333 20.2632 30.331 20.4906 29.7751C20.7181 29.2193 20.827 28.6221 20.8104 28.0217" stroke="black" stroke-width="0.2" stroke-linecap="round" stroke-linejoin="round"/>
<path d="M34.1406 17.9451C34.1406 17.9451 31.1085 18.0871 29.0342 21.3657" stroke="black" stroke-width="0.2" stroke-linecap="round" stroke-linejoin="round"/>
<path d="M31.173 31.2498C30.8102 30.4517 30.689 29.5648 30.8244 28.6986C30.9598 27.8324 31.3458 27.0248 31.9348 26.3754" stroke="black" stroke-width="0.2" stroke-linecap="round" stroke-linejoin="round"/>
<path d="M39.363 23.3074C38.6221 22.8831 37.7653 22.7057 36.9168 22.801C36.0684 22.8963 35.2723 23.2592 34.644 23.8373" stroke="black" stroke-width="0.2" stroke-linecap="round" stroke-linejoin="round"/>
<path d="M16.5256 19.6159C17.2865 19.4644 18.0765 19.6135 18.7299 20.0319" stroke="black" stroke-width="0.2" stroke-linecap="round" stroke-linejoin="round"/>
<path d="M21.3866 17.2015C23.2955 18.2852 23.3839 21.5108 21.775 22.9912C19.4116 25.1669 17.459 22.2513 15.6796 25.1066" stroke="black" stroke-width="0.2" stroke-linecap="round" stroke-linejoin="round"/>
<path d="M28.887 24.2605C29.2589 23.1631 29.2589 21.9738 28.887 20.8764C28.6845 20.1671 28.2261 19.5582 27.6004 19.1674C26.9748 18.7767 26.2265 18.6319 25.5003 18.761" stroke="black" stroke-width="0.2" stroke-linecap="round" stroke-linejoin="round"/>
<path d="M44.3669 7.14784C44.759 8.19616 44.0981 10.3074 42.2022 9.8144C40.546 9.38384 37.9382 10.6901 35.9793 12.2402C35.8772 12.3233 35.7495 12.3686 35.6178 12.3685C35.4861 12.3684 35.3585 12.3228 35.2565 12.2395C35.1545 12.1563 35.0844 12.0403 35.0579 11.9113C35.0315 11.7823 35.0504 11.6481 35.1114 11.5314C36.1327 9.518 37.987 7.05944 40.8918 6.13696C42.6499 5.57952 43.9754 6.09952 44.3669 7.14784Z" fill="#FFE500" stroke="black" stroke-width="0.2" stroke-linecap="round" stroke-linejoin="round"/>
<path d="M1.5496 26.8845C1.79556 27.7929 3.37792 28.5885 4.7164 27.5251C5.89316 26.5891 6.9524 25.6656 8.43076 25.4285C8.49142 25.4189 8.54739 25.39 8.59042 25.3462C8.63345 25.3024 8.66127 25.246 8.66978 25.1851C8.67828 25.1243 8.66702 25.0624 8.63766 25.0084C8.60829 24.9545 8.56238 24.9114 8.50668 24.8856C7.33304 24.3375 5.20208 23.6345 3.21984 24.5122C1.81792 25.1336 1.30572 25.9765 1.5496 26.8845Z" fill="#FF6242" stroke="black" stroke-width="0.2" stroke-linecap="round" stroke-linejoin="round"/>
<path d="M8.6216 7.36833C8.15048 8.95381 9.47492 10.2044 12.4935 10.2096C15.1518 10.2138 16.3706 10.7639 17.719 12.053C17.8138 12.1461 17.938 12.2034 18.0703 12.2149C18.2027 12.2264 18.3349 12.1915 18.4443 12.1162C18.5538 12.0408 18.6335 11.9297 18.67 11.802C18.7064 11.6742 18.6973 11.5377 18.6441 11.416C17.9161 9.68077 16.653 7.43541 14.6323 5.95601C12.4436 4.34973 9.21908 5.35073 8.6216 7.36833Z" fill="#6DD627" stroke="black" stroke-width="0.2" stroke-linecap="round" stroke-linejoin="round"/>
<path d="M50.738 23.8934C50.2216 25.0566 48.8212 25.1274 47.0522 23.622C45.2447 22.0838 44.2036 21.9439 42.3452 22.1545C42.2796 22.1621 42.2134 22.1467 42.1578 22.1111C42.1022 22.0755 42.0607 22.0218 42.0401 21.959C42.0196 21.8963 42.0213 21.8284 42.0451 21.7668C42.0688 21.7052 42.1131 21.6537 42.1704 21.621C43.4314 20.8972 45.6342 19.8925 47.9268 20.061C50.0079 20.217 51.3952 22.4135 50.738 23.8934Z" fill="#4ACFFF" stroke="black" stroke-width="0.2" stroke-linecap="round" stroke-linejoin="round"/>
<path d="M34.6694 31.2504C35.3361 31.7886 36.9689 32.1931 36.9689 34.3366C36.9689 36.48 35.5737 39.0914 35.5737 40.8839C35.5737 42.8703 36.8623 43.4776 37.7374 43.4776C38.6126 43.4776 39.9012 42.8703 39.9012 40.8839C39.9012 39.0914 38.506 36.4805 38.506 34.3366C38.506 32.1926 41.7596 31.6523 41.7596 27.6462C41.7596 25.6604 40.7628 23.9719 39.363 23.3074C39.144 20.2804 37.1145 17.9186 34.6481 17.9186C34.4786 17.9184 34.3092 17.9272 34.1406 17.9451C32.6711 15.3732 30.2656 13.6848 27.5366 13.6848C25.0786 13.6848 22.8831 15.0498 21.3871 17.2015C20.9094 16.8518 20.3348 16.6592 19.7428 16.6503C18.2291 16.6503 16.9608 17.9014 16.5235 19.6143C13.8029 19.7277 11.6163 22.5185 11.6163 25.9474C11.616 26.7454 11.737 27.5388 11.9751 28.3004C12.2135 29.1324 12.7109 29.8668 13.3951 30.3969C14.0793 30.927 14.9147 31.2253 15.7799 31.2483H15.8101C15.8101 31.2483 16.7783 31.9763 16.7783 34.0017C16.7783 36.0271 15.8101 37.5065 15.8101 38.4794C15.8065 38.6631 15.8396 38.8457 15.9075 39.0165C15.9753 39.1873 16.0765 39.3428 16.2052 39.474C16.3339 39.6052 16.4874 39.7094 16.6569 39.7806C16.8263 39.8517 17.0082 39.8884 17.192 39.8884C17.3757 39.8884 17.5577 39.8517 17.7271 39.7806C17.8965 39.7094 18.0501 39.6052 18.1787 39.474C18.3074 39.3428 18.4086 39.1873 18.4765 39.0165C18.5443 38.8457 18.5774 38.6631 18.5739 38.4794C18.5739 37.5065 17.6051 36.0255 17.6051 34.0017C17.6051 31.9778 18.5739 31.2483 18.5739 31.2483H27.8933C27.8933 31.2483 28.9437 32.0402 28.9437 34.2352C28.9437 36.4301 27.8933 38.0364 27.8933 39.0914C27.8933 39.4889 28.0512 39.8701 28.3323 40.1511C28.6133 40.4322 28.9945 40.5901 29.392 40.5901C29.7894 40.5901 30.1706 40.4322 30.4517 40.1511C30.7327 39.8701 30.8906 39.4889 30.8906 39.0914C30.8906 38.0364 29.8402 36.4296 29.8402 34.2352C29.8402 32.0408 30.8906 31.2483 30.8906 31.2483L34.6694 31.2504Z" stroke="black" stroke-width="0.2" stroke-linecap="round" stroke-linejoin="round"/>
<path d="M22.4744 27.7648C22.8714 28.5008 23.057 29.3323 23.0105 30.1672C23.0105 32.9752 21.6674 35.0282 21.6674 36.3776C21.6756 36.8804 21.8812 37.3598 22.2397 37.7124C22.5982 38.0651 23.0809 38.2627 23.5838 38.2627C24.0867 38.2627 24.5694 38.0651 24.9279 37.7124C25.2864 37.3598 25.492 36.8804 25.5003 36.3776C25.5003 35.0282 24.1571 32.9742 24.1571 30.1672C24.1571 27.8964 25.2418 24.9272 25.5658 22.9179L22.4744 27.7648Z" fill="#6DD627"/>
<path d="M19.0658 27.2214C19.7135 27.805 20.5656 28.1091 21.4365 28.0674C21.8048 28.0668 22.1654 27.9619 22.4765 27.7648C22.8735 28.5008 23.059 29.3323 23.0126 30.1672C23.0126 32.9752 21.6694 35.0282 21.6694 36.3776C21.6777 36.8804 21.8833 37.3598 22.2418 37.7124C22.6003 38.0651 23.083 38.2627 23.5859 38.2627C24.0888 38.2627 24.5715 38.0651 24.93 37.7124C25.2885 37.3598 25.4941 36.8804 25.5024 36.3776C25.5024 35.0282 24.1592 32.9742 24.1592 30.1672C24.1592 27.8964 25.2439 24.9272 25.5679 22.9179" stroke="black" stroke-width="0.2" stroke-linecap="round" stroke-linejoin="round"/>
<path d="M31.5962 22.9912C31.3562 23.5366 31.2612 24.1348 31.3205 24.7278C31.3799 25.3207 31.5914 25.8883 31.9348 26.3754C32.2548 26.9564 32.7721 27.4039 33.3932 27.6369C34.0143 27.8698 34.6983 27.873 35.3215 27.6457C37.3251 26.9053 38.0307 27.6457 38.0307 27.6457" stroke="black" stroke-width="0.2" stroke-linecap="round" stroke-linejoin="round"/>
</g>
<defs>
<clipPath id="clip0_45_284">
<rect width="52" height="52" fill="white" transform="translate(0.197601 0.137726)"/>
</clipPath>
</defs>
</svg>
