<svg width="7" height="7" viewBox="0 0 7 7" fill="none" xmlns="http://www.w3.org/2000/svg">
<g clip-path="url(#clip0_43_153)">
<path d="M5.81059 2.1038C5.77772 2.17289 5.75972 2.24811 5.75776 2.32459C5.75579 2.40107 5.76991 2.47711 5.79919 2.5478C5.82847 2.61848 5.87226 2.68223 5.92773 2.73492C5.9832 2.78761 6.04912 2.82807 6.12121 2.85368L6.49017 2.98493C6.59664 3.02272 6.68879 3.09255 6.75396 3.18484C6.81913 3.27712 6.85412 3.38732 6.85412 3.5003C6.85412 3.61328 6.81913 3.72348 6.75396 3.81577C6.68879 3.90805 6.59664 3.97789 6.49017 4.01568L6.12121 4.14693C6.04912 4.17253 5.9832 4.21299 5.92773 4.26568C5.87226 4.31837 5.82847 4.38212 5.79919 4.4528C5.76991 4.52349 5.75579 4.59953 5.75776 4.67601C5.75972 4.7525 5.77772 4.82771 5.81059 4.8968L5.97917 5.25001C6.02791 5.35206 6.04381 5.46671 6.02469 5.57817C6.00556 5.68963 5.95235 5.79243 5.87239 5.87239C5.79242 5.95236 5.68963 6.00557 5.57817 6.02469C5.4667 6.04382 5.35205 6.02791 5.25 5.97918L4.89621 5.81118C4.82713 5.77831 4.75191 5.76031 4.67542 5.75835C4.59894 5.75638 4.5229 5.7705 4.45222 5.79978C4.38153 5.82905 4.31778 5.87285 4.26509 5.92832C4.2124 5.98379 4.17195 6.04971 4.14634 6.1218L4.01509 6.49076C3.97724 6.59713 3.9074 6.68918 3.81515 6.75427C3.7229 6.81936 3.61276 6.8543 3.49986 6.8543C3.38696 6.8543 3.27682 6.81936 3.18457 6.75427C3.09232 6.68918 3.02248 6.59713 2.98463 6.49076L2.85338 6.1218C2.82774 6.0497 2.78725 5.98378 2.73453 5.9283C2.68181 5.87283 2.61804 5.82904 2.54733 5.79976C2.47663 5.77048 2.40056 5.75637 2.32406 5.75834C2.24756 5.7603 2.17232 5.7783 2.10321 5.81118L1.75 5.97918C1.64796 6.0281 1.53324 6.04415 1.42168 6.02509C1.31012 6.00604 1.20723 5.95283 1.12721 5.87281C1.04718 5.79278 0.993972 5.68989 0.974919 5.57833C0.955865 5.46678 0.97191 5.35206 1.02084 5.25001L1.18884 4.89622C1.22171 4.82713 1.2397 4.75191 1.24167 4.67543C1.24363 4.59895 1.22952 4.5229 1.20024 4.45222C1.17096 4.38154 1.12717 4.31779 1.07169 4.2651C1.01622 4.21241 0.950307 4.17195 0.878212 4.14634L0.509254 4.01509C0.402785 3.9773 0.310632 3.90747 0.245462 3.81518C0.180292 3.7229 0.145302 3.61269 0.145302 3.49972C0.145302 3.38674 0.180292 3.27654 0.245462 3.18425C0.310632 3.09197 0.402785 3.02213 0.509254 2.98434L0.878212 2.85309C0.950231 2.82747 1.01608 2.78703 1.07149 2.73439C1.12691 2.68174 1.17067 2.61805 1.19994 2.54744C1.22922 2.47682 1.24335 2.40086 1.24144 2.32444C1.23953 2.24803 1.22161 2.17286 1.18884 2.1038L1.02084 1.75001C0.97191 1.64796 0.955865 1.53324 0.974919 1.42168C0.993972 1.31013 1.04718 1.20724 1.12721 1.12721C1.20723 1.04719 1.31012 0.993977 1.42168 0.974924C1.53324 0.955871 1.64796 0.971915 1.75 1.02084L2.1038 1.18884C2.17284 1.22163 2.24799 1.23958 2.32439 1.24153C2.4008 1.24348 2.47677 1.2294 2.5474 1.20019C2.61803 1.17097 2.68175 1.12728 2.73445 1.07192C2.78715 1.01657 2.82767 0.950779 2.85338 0.878801L2.98463 0.509843C3.02248 0.403474 3.09232 0.311427 3.18457 0.246336C3.27682 0.181245 3.38696 0.146301 3.49986 0.146301C3.61276 0.146301 3.7229 0.181245 3.81515 0.246336C3.9074 0.311427 3.97724 0.403474 4.01509 0.509843L4.14634 0.878801C4.17195 0.950896 4.2124 1.01681 4.26509 1.07228C4.31778 1.12775 4.38153 1.17155 4.45222 1.20083C4.5229 1.23011 4.59894 1.24422 4.67542 1.24226C4.75191 1.24029 4.82713 1.22229 4.89621 1.18943L5.25 1.02084C5.35205 0.972105 5.4667 0.956203 5.57817 0.975327C5.68963 0.99445 5.79242 1.04766 5.87239 1.12763C5.95235 1.20759 6.00556 1.31039 6.02469 1.42185C6.04381 1.53331 6.02791 1.64796 5.97917 1.75001L5.81059 2.1038Z" stroke="black" stroke-width="0.833333" stroke-linecap="round" stroke-linejoin="round"/>
<path d="M2.18721 3.50031C2.18721 3.8484 2.32549 4.18224 2.57163 4.42838C2.81777 4.67452 3.15161 4.81281 3.49971 4.81281C3.84781 4.81281 4.18165 4.67452 4.42779 4.42838C4.67393 4.18224 4.81221 3.8484 4.81221 3.50031C4.81221 3.15221 4.67393 2.81837 4.42779 2.57223C4.18165 2.32609 3.84781 2.18781 3.49971 2.18781C3.15161 2.18781 2.81777 2.32609 2.57163 2.57223C2.32549 2.81837 2.18721 3.15221 2.18721 3.50031Z" stroke="black" stroke-width="0.833333" stroke-linecap="round" stroke-linejoin="round"/>
</g>
<defs>
<clipPath id="clip0_43_153">
<rect width="7" height="7" fill="white"/>
</clipPath>
</defs>
</svg>
