<svg width="7" height="7" viewBox="0 0 7 7" fill="none" xmlns="http://www.w3.org/2000/svg">
<g clip-path="url(#clip0_45_231)">
<path d="M5.81058 2.1038C5.77771 2.17289 5.75971 2.24811 5.75775 2.32459C5.75579 2.40107 5.7699 2.47711 5.79918 2.5478C5.82846 2.61848 5.87225 2.68223 5.92772 2.73492C5.98319 2.78761 6.04911 2.82807 6.1212 2.85368L6.49016 2.98493C6.59663 3.02272 6.68878 3.09255 6.75396 3.18484C6.81913 3.27712 6.85411 3.38732 6.85411 3.5003C6.85411 3.61328 6.81913 3.72348 6.75396 3.81577C6.68878 3.90805 6.59663 3.97789 6.49016 4.01568L6.1212 4.14693C6.04911 4.17253 5.98319 4.21299 5.92772 4.26568C5.87225 4.31837 5.82846 4.38212 5.79918 4.4528C5.7699 4.52349 5.75579 4.59953 5.75775 4.67601C5.75971 4.7525 5.77771 4.82771 5.81058 4.8968L5.97916 5.25001C6.0279 5.35206 6.0438 5.46671 6.02468 5.57817C6.00556 5.68963 5.95235 5.79243 5.87238 5.87239C5.79241 5.95236 5.68962 6.00557 5.57816 6.02469C5.4667 6.04382 5.35205 6.02791 5.25 5.97918L4.8962 5.81118C4.82712 5.77831 4.7519 5.76031 4.67542 5.75835C4.59893 5.75638 4.52289 5.7705 4.45221 5.79978C4.38153 5.82905 4.31778 5.87285 4.26509 5.92832C4.2124 5.98379 4.17194 6.04971 4.14633 6.1218L4.01508 6.49076C3.97723 6.59713 3.90739 6.68918 3.81514 6.75427C3.72289 6.81936 3.61275 6.8543 3.49985 6.8543C3.38695 6.8543 3.27681 6.81936 3.18456 6.75427C3.09231 6.68918 3.02247 6.59713 2.98462 6.49076L2.85337 6.1218C2.82773 6.0497 2.78724 5.98378 2.73452 5.9283C2.68181 5.87283 2.61803 5.82904 2.54733 5.79976C2.47662 5.77048 2.40056 5.75637 2.32405 5.75834C2.24755 5.7603 2.17231 5.7783 2.1032 5.81118L1.75 5.97918C1.64795 6.0281 1.53323 6.04415 1.42167 6.02509C1.31012 6.00604 1.20722 5.95283 1.1272 5.87281C1.04718 5.79278 0.993964 5.68989 0.974911 5.57833C0.955858 5.46678 0.971902 5.35206 1.02083 5.25001L1.18883 4.89622C1.2217 4.82713 1.2397 4.75191 1.24166 4.67543C1.24362 4.59895 1.22951 4.5229 1.20023 4.45222C1.17095 4.38154 1.12716 4.31779 1.07169 4.2651C1.01621 4.21241 0.950299 4.17195 0.878204 4.14634L0.509246 4.01509C0.402777 3.9773 0.310625 3.90747 0.245454 3.81518C0.180284 3.7229 0.145294 3.61269 0.145294 3.49972C0.145294 3.38674 0.180284 3.27654 0.245454 3.18425C0.310625 3.09197 0.402777 3.02213 0.509246 2.98434L0.878204 2.85309C0.950223 2.82747 1.01607 2.78703 1.07149 2.73439C1.1269 2.68174 1.17066 2.61805 1.19994 2.54744C1.22921 2.47682 1.24334 2.40086 1.24143 2.32444C1.23952 2.24803 1.2216 2.17286 1.18883 2.1038L1.02083 1.75001C0.971902 1.64796 0.955858 1.53324 0.974911 1.42168C0.993964 1.31013 1.04718 1.20724 1.1272 1.12721C1.20722 1.04719 1.31012 0.993977 1.42167 0.974924C1.53323 0.955871 1.64795 0.971915 1.75 1.02084L2.10379 1.18884C2.17283 1.22163 2.24798 1.23958 2.32439 1.24153C2.40079 1.24348 2.47676 1.2294 2.54739 1.20019C2.61802 1.17097 2.68174 1.12728 2.73444 1.07192C2.78715 1.01657 2.82766 0.950779 2.85337 0.878801L2.98462 0.509843C3.02247 0.403474 3.09231 0.311427 3.18456 0.246336C3.27681 0.181245 3.38695 0.146301 3.49985 0.146301C3.61275 0.146301 3.72289 0.181245 3.81514 0.246336C3.90739 0.311427 3.97723 0.403474 4.01508 0.509843L4.14633 0.878801C4.17194 0.950896 4.2124 1.01681 4.26509 1.07228C4.31778 1.12775 4.38153 1.17155 4.45221 1.20083C4.52289 1.23011 4.59893 1.24422 4.67542 1.24226C4.7519 1.24029 4.82712 1.22229 4.8962 1.18943L5.25 1.02084C5.35205 0.972105 5.4667 0.956203 5.57816 0.975327C5.68962 0.99445 5.79241 1.04766 5.87238 1.12763C5.95235 1.20759 6.00556 1.31039 6.02468 1.42185C6.0438 1.53331 6.0279 1.64796 5.97916 1.75001L5.81058 2.1038Z" stroke="black" stroke-width="0.833333" stroke-linecap="round" stroke-linejoin="round"/>
<path d="M2.18719 3.50031C2.18719 3.8484 2.32548 4.18224 2.57162 4.42838C2.81776 4.67452 3.1516 4.81281 3.49969 4.81281C3.84779 4.81281 4.18163 4.67452 4.42777 4.42838C4.67391 4.18224 4.81219 3.8484 4.81219 3.50031C4.81219 3.15221 4.67391 2.81837 4.42777 2.57223C4.18163 2.32609 3.84779 2.18781 3.49969 2.18781C3.1516 2.18781 2.81776 2.32609 2.57162 2.57223C2.32548 2.81837 2.18719 3.15221 2.18719 3.50031Z" stroke="black" stroke-width="0.833333" stroke-linecap="round" stroke-linejoin="round"/>
</g>
<defs>
<clipPath id="clip0_45_231">
<rect width="7" height="7" fill="white"/>
</clipPath>
</defs>
</svg>
