<svg width="21" height="21" viewBox="0 0 21 21" fill="none" xmlns="http://www.w3.org/2000/svg">
<path d="M10.2857 13.8572C12.2582 13.8572 13.8572 12.2582 13.8572 10.2857C13.8572 8.31328 12.2582 6.71429 10.2857 6.71429C8.31328 6.71429 6.71429 8.31328 6.71429 10.2857C6.71429 12.2582 8.31328 13.8572 10.2857 13.8572Z" stroke="white" stroke-width="1.42857" stroke-linecap="round" stroke-linejoin="round"/>
<path d="M19.5714 10.2857L16.2286 12.7429L16.8571 16.8571L12.7429 16.2286L10.2857 19.5714L7.82857 16.2286L3.71429 16.8571L4.34286 12.7429L1 10.2857L4.34286 7.82857L3.71429 3.71429L7.82857 4.34286L10.2857 1L12.7429 4.34286L16.8571 3.71429L16.2286 7.82857L19.5714 10.2857Z" stroke="white" stroke-width="1.42857" stroke-linecap="round" stroke-linejoin="round"/>
</svg>
